<svg id="Filled" height="512" viewBox="0 0 512 512" width="512" xmlns="http://www.w3.org/2000/svg"><path d="m296 296h-240a32 32 0 0 0 -32 32v160h304v-160a32 32 0 0 0 -32-32z" fill="#eba72e"/><path d="m469.4 248a13.4 13.4 0 0 0 -13.4 13.4 13.4 13.4 0 1 0 -26.119 4.238l10.119 38.362h32l10.119-38.358a13.4 13.4 0 0 0 -12.719-17.642z" fill="#20754d"/><circle cx="392" cy="360" fill="#d9db5e" r="32"/><path d="m487.44 333.9-3.39 18.1-3 16-8.05 42.95a16 16 0 0 1 -15.73 13.05h-5.44a16 16 0 0 1 -15.73-13.05l-14.06-74.95-.39-2.1a31.959 31.959 0 0 1 31.46-37.9h2.88a32 32 0 0 1 31.45 37.9z" fill="#f78a25"/><path d="m72 224s-16 49.386-48 32.924c0 0 24 57.617 112 32.924v-65.848z" fill="#95573a"/><path d="m280 224s16 49.386 48 32.924c0 0-24 57.617-112 32.924v-65.848z" fill="#95573a"/><g fill="#a36f58"><path d="m56 408h240v80h-240z"/><path d="m264 296h32v112h-32z"/><path d="m56 296h32v112h-32z"/></g><path d="m184 296-64 48v-48z" fill="#f7b030"/><path d="m168 296 64 48v-48z" fill="#f7b030"/><circle cx="72" cy="208" fill="#f0c6a4" r="32"/><circle cx="280" cy="208" fill="#f0c6a4" r="32"/><rect fill="#f7cca9" height="224" rx="104" width="208" x="72" y="80"/><path d="m128 456h96v32h-96z" fill="#d49073"/><path d="m280 136h-208l13.611-95.279c1.389-9.683 8.01-16.721 15.742-16.721h149.294c7.732 0 14.358 7.038 15.742 16.721z" fill="#d49073"/><path d="m280 136h-208l4.57-32h198.86z" fill="#d13330"/><path d="m72.985 136h206.03a32 32 0 0 1 31.045 24.239l1.94 7.761h-272l1.94-7.761a32 32 0 0 1 31.045-24.239z" fill="#d49073"/><circle cx="328" cy="360" fill="#764f85" r="32"/><circle cx="296" cy="384" fill="#fa730a" r="32"/><circle cx="360" cy="384" fill="#ffb632" r="32"/><path d="m488 392-5.33 32h-213.34l-5.33-32z" fill="none"/><circle cx="424" cy="384" fill="#d13330" r="32"/><path d="m472 488h-192l-16-96h224z" fill="#b37a60"/><path d="m482.67 424-10.67 64h-192l-10.67-64z" fill="#95573a"/><path d="m24 496h448a8 8 0 0 0 7.892-6.685l16-96a8 8 0 0 0 -7.892-9.315h-1.812l9.118-48.628a40.034 40.034 0 0 0 -14.961-39.108l9.364-28.091a21.386 21.386 0 0 0 -33.709-23.432 21.392 21.392 0 0 0 -33.709 23.432l8.809 26.427a39.958 39.958 0 0 0 -17.946 31.472 39.929 39.929 0 0 0 -53.154 9.956 40.05 40.05 0 0 0 -24.683-15.345 40.122 40.122 0 0 0 -26.926-30.709c.956-.614 1.886-1.23 2.764-1.848 17.506-12.326 23.963-27.486 24.23-28.126a8 8 0 0 0 -11.045-10.19c-3.575 1.841-13.548 6.972-25.012-6.805a39.967 39.967 0 0 0 4.644-67h8.028a8 8 0 0 0 7.761-9.94l-1.941-7.765a39.933 39.933 0 0 0 -30.765-29.484l-12.746-89.226c-1.953-13.669-11.909-23.59-23.663-23.59h-149.292c-11.754 0-21.71 9.921-23.663 23.589l-12.746 89.226a39.933 39.933 0 0 0 -30.765 29.485l-1.941 7.761a8 8 0 0 0 7.761 9.939h8.028a39.97 39.97 0 0 0 4.742 67.062c-5.077 6.287-13.379 12.784-25.11 6.748a8 8 0 0 0 -11.045 10.19c.249.6 6.293 14.8 22.5 26.872 1.482 1.1 2.99 2.12 4.508 3.1a40.064 40.064 0 0 0 -27.623 38.028v160a8 8 0 0 0 8 8zm192-16h-80v-16h80zm16 0v-24a8 8 0 0 0 -8-8h-96a8 8 0 0 0 -8 8v24h-56v-64h195.889l10.667 64zm-168-80v-96h16v96zm192.108-6.685 1.114 6.685h-73.222v-82l43.2 32.4a8 8 0 0 0 12.8-6.4v-41.094a137.06 137.06 0 0 0 16 1.046s-.1 88.088.108 89.363zm-56.725-83.778a111.107 111.107 0 0 0 24.617-8.358v26.821zm-23.383-13.537a96.108 96.108 0 0 1 -96-96v-24h192v24a96.108 96.108 0 0 1 -96 96zm-23.383 13.537-24.617 18.463v-26.821a111.107 111.107 0 0 0 24.617 8.358zm-40.617-6.629v41.092a8 8 0 0 0 12.8 6.4l43.2-32.4v82h-72v-96.059a138.306 138.306 0 0 0 16-1.033zm184 57.092a24.028 24.028 0 0 1 24 24h-48a24.028 24.028 0 0 1 24-24zm-24-7.978v-48.022h16v40.805a39.841 39.841 0 0 0 -16 7.217zm193.223 127.978h-178.446l-8-48h194.446zm10.667-64h-199.78l-2.667-16h205.114zm-15.24-48h12.258l-3 16h-5.908a39.759 39.759 0 0 0 -3.35-16zm3.35-106.6a5.409 5.409 0 0 1 5.4-5.4 5.4 5.4 0 0 1 5.126 7.112l-8.707 26.122c-.6-.152-1.21-.292-1.822-.416zm-25.787-3.159a5.346 5.346 0 0 1 4.387-2.241 5.409 5.409 0 0 1 5.4 5.4v26.934q-1.016.129-2.018.308l-8.511-25.533a5.342 5.342 0 0 1 .742-4.865zm8.335 61.759h-16.068a24 24 0 0 1 22.625-16h2.885a24 24 0 0 1 23.589 28.423l-3.671 19.577h-21.36a7.954 7.954 0 0 0 -4.683 1.523 39.885 39.885 0 0 0 -18.032-8.748l-1.646-8.775h16.361a8 8 0 0 0 0-16zm-22.548 40a24.028 24.028 0 0 1 24 24h-48a24.028 24.028 0 0 1 24-24zm-32-24a23.979 23.979 0 0 1 19.486 10.016 40.16 40.16 0 0 0 -19.486 14.012 40.16 40.16 0 0 0 -19.486-14.012 23.979 23.979 0 0 1 19.486-10.016zm-32 24a24.028 24.028 0 0 1 24 24h-48a24.028 24.028 0 0 1 24-24zm-32-24a23.979 23.979 0 0 1 19.486 10.016 40.16 40.16 0 0 0 -19.486 14.012 40.16 40.16 0 0 0 -19.486-14.012 23.979 23.979 0 0 1 19.486-10.016zm-9.032-14.959a39.843 39.843 0 0 0 -14.968 6.981v-22.646a24.11 24.11 0 0 1 14.968 15.665zm-8.583-53.159c-10.547 10.561-30.373 22.71-64.5 19.569a112.7 112.7 0 0 0 31.294-39.451h2.821c1.023 0 2.033-.051 3.037-.127 7.872 11.568 17.263 18.358 27.348 20.009zm-6.385-59.882a24.035 24.035 0 0 1 -20.592 23.754 111.652 111.652 0 0 0 4.592-31.754v-14.624a24.039 24.039 0 0 1 16 22.624zm-210.469-166.148c.789-5.525 4.225-9.852 7.823-9.852h149.292c3.6 0 7.034 4.327 7.823 9.853l7.731 54.147h-180.4zm-10.021 70.148h184.98l2.286 16h-189.552zm-10.526 32h206.032a23.964 23.964 0 0 1 22.628 16h-251.288a23.964 23.964 0 0 1 22.628-16zm-24.984 64a24.039 24.039 0 0 1 16-22.624v14.624a111.652 111.652 0 0 0 4.592 31.754 24.035 24.035 0 0 1 -20.592-23.754zm-6.528 59.892c10.14-1.617 19.6-8.406 27.5-20.018 1 .075 2.01.126 3.03.126h2.821a112.693 112.693 0 0 0 31.3 39.461c-34.38 3.224-54.179-8.961-64.651-19.569zm-9.472 60.108a24.039 24.039 0 0 1 16-22.624v174.624h-16z"/><circle cx="216" cy="200" r="8"/><circle cx="136" cy="200" r="8"/><path d="m219.077 224.615a8 8 0 0 0 -10.462 4.308c-.079.191-8.23 19.077-32.615 19.077-24.03 0-32.3-18.353-32.615-19.077a8 8 0 0 0 -14.77 6.154c.492 1.181 12.453 28.923 47.385 28.923s46.893-27.742 47.385-28.923a8 8 0 0 0 -4.308-10.462z"/><path d="m168 224h16a8 8 0 0 0 0-16h-8v-8a8 8 0 0 0 -16 0v16a8 8 0 0 0 8 8z"/></svg>